<?xml version="1.0" encoding="utf-8"?><svg style="position: absolute; width: 0; height: 0; visibility: hidden;" xmlns="http://www.w3.org/2000/svg" xmlns:xlink="http://www.w3.org/1999/xlink"><symbol viewBox="0 0 24 24" id="close"><path d="M21 3L3 21m18 0L3 3"/></symbol><symbol viewBox="0 0 32 32" id="facebook"><path d="M16 0C7.164 0 0 7.164 0 16s7.164 16 16 16 16-7.164 16-16S24.836 0 16 0zm4 10.667h-1.8c-.717 0-.867.294-.867 1.037v1.63H20L19.721 16h-2.388v9.333h-4V16h-2.666v-2.667h2.666v-3.077c0-2.359 1.242-3.59 4.039-3.59H20v4z"/></symbol><symbol viewBox="0 0 32 32" id="instagram"><path d="M21.5 11.5a1 1 0 110-2 1 1 0 010 2z"/><path d="M16 0C7.165 0 0 7.165 0 16s7.165 16 16 16 16-7.165 16-16S24.835 0 16 0zm9.132 19.788c-.044.978-.2 1.646-.427 2.23a4.698 4.698 0 01-2.687 2.687c-.584.227-1.252.382-2.23.427-.98.045-1.293.055-3.788.055s-2.808-.01-3.788-.055c-.978-.045-1.646-.2-2.23-.427a4.501 4.501 0 01-1.627-1.06 4.504 4.504 0 01-1.06-1.627c-.227-.584-.382-1.252-.427-2.23-.045-.98-.056-1.293-.056-3.788s.011-2.808.056-3.788c.044-.978.2-1.646.427-2.23a4.5 4.5 0 011.06-1.627 4.5 4.5 0 011.627-1.06c.584-.227 1.252-.382 2.23-.427.98-.045 1.293-.056 3.788-.056s2.808.011 3.788.056c.978.045 1.646.2 2.23.427.613.23 1.168.592 1.627 1.06.468.459.83 1.014 1.06 1.627.227.584.383 1.252.427 2.23.045.98.055 1.293.055 3.788s-.01 2.808-.055 3.788z"/><path fill-rule="evenodd" clip-rule="evenodd" d="M16.004 18.836a2.793 2.793 0 100-5.586 2.793 2.793 0 000 5.586zm0 1.25a4.043 4.043 0 100-8.086 4.043 4.043 0 000 8.086z"/></symbol><symbol viewBox="0 0 32 32" id="sliderArrow"><path d="M7.724 15.122l14.8-14.76a1.24 1.24 0 011.753 1.757L10.357 16l13.92 13.881a1.24 1.24 0 11-1.752 1.757L7.724 16.878a1.239 1.239 0 010-1.756z"/></symbol><symbol viewBox="0 0 32 32" id="vk"><path d="M16 0C7.164 0 0 7.164 0 16s7.164 16 16 16 16-7.164 16-16S24.836 0 16 0zm8.459 21.55h-2.49c-1.406 0-1.642-.8-2.802-1.958-1.047-1.047-1.627-.244-1.603 1.247.008.396-.188.712-.66.712-1.473 0-3.592.208-5.739-2.107-2.196-2.372-4.498-7.13-4.498-7.599 0-.277.229-.401.612-.401h2.53c.671 0 .727.332.915.757.779 1.775 2.641 5.336 3.139 3.348.285-1.141.401-3.785-.82-4.013-.694-.128.528-.87 2.296-.87.44 0 .917.047 1.405.16.897.209.901.611.888 1.198-.045 2.221-.313 3.715.272 4.092.559.361 2.028-2.003 2.805-3.828.212-.504.255-.843.858-.843h3.096c1.621 0-.212 2.331-1.614 4.15-1.129 1.465-1.069 1.493.244 2.712.935.868 2.04 2.053 2.04 2.724 0 .317-.248.52-.874.52z"/></symbol></svg>